<mxfile host="app.diagrams.net" modified="2024-05-01T20:01:22.025Z" agent="Mozilla/5.0 (Windows NT 10.0; Win64; x64) AppleWebKit/537.36 (KHTML, like Gecko) Chrome/124.0.0.0 Safari/537.36" etag="3tlE-DzaSXPLsnYS8kza" version="24.2.0" type="device">
  <diagram name="Page-1" id="XEC9-tnpvPgLncP3YwxS">
    <mxGraphModel dx="656" dy="331" grid="1" gridSize="10" guides="1" tooltips="1" connect="1" arrows="1" fold="1" page="1" pageScale="1" pageWidth="850" pageHeight="1100" math="0" shadow="0">
      <root>
        <mxCell id="0" />
        <mxCell id="1" parent="0" />
        <mxCell id="Pf2_Ig4Mhhs4Qp1NN6XY-1" value="Actor" style="shape=umlActor;verticalLabelPosition=bottom;verticalAlign=top;html=1;outlineConnect=0;" vertex="1" parent="1">
          <mxGeometry x="110" y="270" width="30" height="60" as="geometry" />
        </mxCell>
        <mxCell id="Pf2_Ig4Mhhs4Qp1NN6XY-24" style="edgeStyle=orthogonalEdgeStyle;rounded=0;orthogonalLoop=1;jettySize=auto;html=1;entryX=0;entryY=0.5;entryDx=0;entryDy=0;" edge="1" parent="1" source="Pf2_Ig4Mhhs4Qp1NN6XY-8" target="Pf2_Ig4Mhhs4Qp1NN6XY-23">
          <mxGeometry relative="1" as="geometry" />
        </mxCell>
        <mxCell id="Pf2_Ig4Mhhs4Qp1NN6XY-8" value="Video Feed&lt;div&gt;&lt;br&gt;&lt;/div&gt;&lt;div&gt;&lt;br&gt;&lt;/div&gt;" style="rounded=0;whiteSpace=wrap;html=1;" vertex="1" parent="1">
          <mxGeometry x="65" y="150" width="120" height="60" as="geometry" />
        </mxCell>
        <mxCell id="Pf2_Ig4Mhhs4Qp1NN6XY-10" value="" style="endArrow=none;dashed=1;html=1;rounded=0;entryX=0;entryY=0.75;entryDx=0;entryDy=0;" edge="1" parent="1" target="Pf2_Ig4Mhhs4Qp1NN6XY-11">
          <mxGeometry width="50" height="50" relative="1" as="geometry">
            <mxPoint x="125" y="270" as="sourcePoint" />
            <mxPoint x="110" y="240" as="targetPoint" />
          </mxGeometry>
        </mxCell>
        <mxCell id="Pf2_Ig4Mhhs4Qp1NN6XY-11" value="" style="rounded=1;whiteSpace=wrap;html=1;" vertex="1" parent="1">
          <mxGeometry x="95" y="210" width="60" height="10" as="geometry" />
        </mxCell>
        <mxCell id="Pf2_Ig4Mhhs4Qp1NN6XY-12" value="" style="endArrow=none;dashed=1;html=1;rounded=0;entryX=1;entryY=1;entryDx=0;entryDy=0;" edge="1" parent="1" target="Pf2_Ig4Mhhs4Qp1NN6XY-11">
          <mxGeometry width="50" height="50" relative="1" as="geometry">
            <mxPoint x="125" y="270" as="sourcePoint" />
            <mxPoint x="105" y="228" as="targetPoint" />
          </mxGeometry>
        </mxCell>
        <mxCell id="Pf2_Ig4Mhhs4Qp1NN6XY-15" value="" style="html=1;verticalLabelPosition=bottom;align=center;labelBackgroundColor=#ffffff;verticalAlign=top;strokeWidth=2;strokeColor=#0080F0;shadow=0;dashed=0;shape=mxgraph.ios7.icons.cup;" vertex="1" parent="1">
          <mxGeometry x="366.84" y="290" width="51.08" height="44.87" as="geometry" />
        </mxCell>
        <mxCell id="Pf2_Ig4Mhhs4Qp1NN6XY-37" style="edgeStyle=orthogonalEdgeStyle;rounded=0;orthogonalLoop=1;jettySize=auto;html=1;entryX=0.5;entryY=0;entryDx=0;entryDy=0;" edge="1" parent="1" source="Pf2_Ig4Mhhs4Qp1NN6XY-18" target="Pf2_Ig4Mhhs4Qp1NN6XY-8">
          <mxGeometry relative="1" as="geometry">
            <Array as="points">
              <mxPoint x="392" y="70" />
              <mxPoint x="125" y="70" />
            </Array>
          </mxGeometry>
        </mxCell>
        <mxCell id="Pf2_Ig4Mhhs4Qp1NN6XY-18" value="" style="shape=image;verticalLabelPosition=bottom;labelBackgroundColor=default;verticalAlign=top;aspect=fixed;imageAspect=0;image=data:image/webp,UklGRoZSAABXRUJQVlA4WAoAAAAIAAAATgIATgIAVlA4IKZRAADwVgGdASpPAk8CPm00lkikIqIiIvVqMIANiWlu8WH3t/8OfLTSxx81b4gGcLSQ7/fRv2W/zPou+ffyf+d8N/L57N/hf2s/wP7Z/eJez+J+930T/nf40/Wf4P9x/jX/af7/xL+Uf9x+cPwF/k/8y/x39y/ar87fs9/G7gTX/9h/2PUI9cfoH+t/uf+R/9f+U+N78P/w+iP8L/of+N7gP6yf8H2Q/8fikffv+j7An83/vf/m/wH+g9z//t/1H+7/dX3Q/pf+i/8f+e/2nyF/zL+z/9D/Df539tfnX///uj/dP//+6z+0///HzUFbBJ66DbJsZhHF+c3+hixfy4UNQVsEnroNsnXTn+Qp8dBj8M5k9M7A8ngpz91QYvnrB4MSwPPzKSo10G2Trpz/IU+uHQPy4A6OmEr9jt6sFgybCyNaZXIc1REzn4fJ64UNQVsEnroNsnXTn6FndfnjhjKl0gyvTyl+SzbsxX5GI6v4+HhgR3LEtWBJ1M6AMiXHk3Ptjn+Qp9cOgflwoagrUgvzrKP5saKuRU+lA3n4aCZ9f//V7sfohdk6o4zyC/+RvocvIrwGM8fRHDJhUscS4YHD4he4dA/LhQ1BWwSeug2tLzMOicHXyqOHO5NkuPmbNwqocyK8JV066vY05eKzvrJVG0MEecx2OgF4YuR/BElunILBz/IU+uHQPy4UNPpWlciL45Ge6334oYiowAK0pICm3awasubuHRReGnnTFhjrH89z5rr7b+nRNifElKr6xMD1cWzh86P2zPgXi2CT10G2Trpz/IU3ADahKPJc1gkh1HBWPTq7nVJ0qnv1x8vseug2yddOf5Cn1w2R+YJ3VlBoMnzSSyxVVEW+TaiCpVQHhf0kDKb5kCZT/Z1ViSeNTMi2d8NQgVBtk66c/yFPrh0D1o+e9HYMOPFOvZCBxbF6OW/W1OFyiU+ymJXKA9cV9ddFf/OJZMpjs1e3kkFBB83r/IyGLS4iFAKBA2TUFbBJ66DbJ105+azHvDLlLU+iN3wBT9DsMp27pMbdsJ2zXFSSCTH9obSAsKkpL1RWIq6i8Ig9+UWdeCHe0RiOSsOIcIxG3YvFnUHtzKj2Hm93pRnGbK2CT10G2Trpzlkl2pk3dPY8RL6oPEE4Xuluwm01/+YUQTFGlvc+6Z2k/MgUkytEexZUp+qVz9UxENlmTq62n7z69RBNnzed3ldYqx9TN0TritXLKfXDoH5cKGnVznK4SRy8eR6yztI9KsFCH1xLh0ghAp6HR2E2ocAfWHEKiWNnYda+XQoaqXMxCmcCTi+9VoGB+XTn+Qp9cOgfhXKktE4yWzSoHBKG1C7CXXL6p33C4ru4iocmySXe3qIGGJ7DUkX7zLXNxk3tjKjHyr6FRnAy1QJOgAsIkG9vj64dA/LhQ1BVK16Ij5t7e05W9FMSUktq/axbePCbVuJo+rHFbC5VN8/tQUtbO9BSx0z3YjHyd9WptonaslMzo9VW6pgSToNsnXTn+QpsBU8N+de0q/gUJCesJYqoTogLaxbis3kJVLT0vwca2+yyOYCCPik+XEK0/EN8bIbXgxPMcPUy8K9+csweqyJ6zcw1BWwSeug2ycJgWQF4gS3EYufScyIZCDevInm5eoQ1SNi99sMu2JfWvWi5+qDlJv7Sb12Z62reflCPa3rrrYJPXQbZOunNxhAOyHETrHEwbT0ZQLU8gs9adILPD71m4aEup/rsD5FS/kKfXDoH5cKGoKo4Im65FHj/QscUURYyeqRtaCCGtODRC2qiWNE+YBg8OKw9s1QpEjtOf5Cn1w6B+XDTUpi6qJ1UfIz0D1PqL3JuEyUpkH1gyais8+i5Kt6E66c/yFPrh0D8t+P1w+gpeFVSJ9IsBe2oQ9iCHkASFtBqM/vY9Msu43wtXcaUl6HwwSeug2yddOf5Cmuf9CVMxEdtMOAv/tXSIuAYpSNvkzLJuXaWKNCjShJf7Zoth/UJv3FttH7aqzUMEmRXhW0/clMFmCYl0pU+YUNQVsEnroNsh/P32LgKqUZzcYvVIuKBM7S4QCU+BXrW9ReIutxJR4UEzsP/EQP8VwLrJhZ3CYXZjHAWOlbN0kbjRviIddjWub+f7ldBM6591TX5eThAPJ0jZiTWVgN/wnlOC4UK05/kKfXDoH5cNpfiNFGMKtlQRlszJjIuj65GYTBFv9s2SSnaiyrf6O1w3XRyhPNM7DcuQlKtDEPiUhTR9fwCGUcxKZwlAQBG7yDCu9K2CT10G2Trpz/IS1S1XqtszpqSbYuq+RwBVYqEWZj+IpT4LxVsrZ+Ixou3jyrhKVB05b7VdkZKlsgEIz4m/Wk3EfuAvhRQBZKaytpjEBm0PNsCRFxe2MuWHUBcOgflwoagrYJPLWeM8Hn3TM419YLPzfSknxI+LQDLC+ZGsEfoptudxKdC3GjFqw7GP0KMx1qkGHpp4fGFXZIXMCA/ruypfFQq1HTyNIF29pBBapz/mJm+rJe8Wtod+w1knroNsnXTn+PnPd/3ihI2It7NcpdAHWX7v7hCUG0RmNMI3mWz7HGl0YXo/IQwKFz1zqr5ozH8OarIQnJbQ94kXW5rUlJ0le9La2tkh9OK+6xrrd4mvdPmZ/rm/81858ZfXahqDe/g3IU+uHQPy4UM06B796l1f6qd+IqqCKQfb6qfBX/J9DDxcaVuvr3tRSvo61DpW0HJs6kr0y1xngN54P66mAkzzrhQ1BWwSeug2yJR8QMrtvLZfXjCIe4U2ef2730XkPKykx2A6Pua+vmBFWI9SembFygutZn9up7QqllxQnfZah1sw5fU7UlPiAuV/Vy3Tk6ALH9OZ8V1sEnroNsnXTn5jWX8NZ+dddgJJ871eCsi5OIsVOcB6XLZS+6QHTCQjsiFcrdimey90QlWRfl1fEQac0yhrfYCqk43ixSLEN0ijviFaKjDR32Tf8plZtli/k6norsEc3fOnP8hT64dA/Lfo8BcMlHHQF4xQTsrA+YBXDy7o8CR+SG3/a0fHHUMvx21Zkxj7EEeyttfuPHw25amdqpS6SButai9kY3EQnBXNeFf8nUe5BSuC7V38/Jv5ZhZlvuBTGZcXFvyT10G2Trpz/Hq8em1UXTSqhNSnLGrEPkuzUkZHid1Yo5HDeme4jcp42O3LPxz7xr+vsDm1yurO50RKpiUmjK/iIYQs8BxFM/hvpayUUnv+15xJ/p2P9iNq7IXtH9+hMi4KcWBrH1w6B+XChqCtU8CxQSe5rqwnZe4dECXrtLtlFiV0cP2J1bFeMzNQKY1TTeL3TPxGI4p7K2qhH5Zxl4GhknO7HbjGNGWnxFb7pah9jdVrnie3hXs0T/SoIGUKZ6D4agrYJPXQbZOKhU8XbxvpvvVaQLWyETFs9au0rQnXlM9y8tZtPvAGGJePDf5I8s0TQ3f1mb49Zcf4yDuTTznFMAVFaxoS//3rzyLsJY1Wloka3105/kKfXDoH4iXIVD+CGhBESnHF26HxIjypWzaPcfLphLXH4C8TFn0z9vBrH09JZmQV906nzlmG56DFh9tBwk/djv47yhKX03ChqCtgk9dBtk4WgOwgzh05R1sdy3OVvRHv77P8IDGLy9+O7H8pam2r+2DAWyNxKpestF1knroNsnXTn+QqBu5CoVQ2hVw1v4g7Rpl9/YwSM2Seug2ydXAAP785wBx4gqJvRxp/9YJXKNiEGn7izQwAGX12kKM3dzgkh6K2Hp+8OxBEpIMFGWmbD/gCYF9Vsqn3RgaRNHSm8CrafB4lcinMT7aw/ZhqnmVUXZwAxmmkCotOz+cNtrWQTYItdcZURhJH6hUe9E83bRU6lRGu46d36Q81GwXu2yjRjtHJ+lIGEsw95fYb7qYBSM2xb/ctpKcpxiT2026sxi6T0oAyj2wl68m1xqik3OR0vlxJAcRqO09bn4RomJFS1JTb7O1+B1m9rBNLJKJaoBJjiGwG/LX/uHG09CSYRr5fSTXkefIAkzUQFCHCfaN4q/AE56m8iG3nsg3WROZqI/wZ+pyKf2BX1NU92ROnvc1OuvTkbLl5uyEvgdKV/RjyBAY5EbA4ymHQDKmGtx9oHMRjcbLv16M5LOxR4EN4HabrwOa9hwkW84UaDk6iAFRti8o5Lj2p0DpggrdvFpUiPdmXL5r7skP3yK0JYDPUSOWaW6Qd6/mSvvmwXkTx/jnvTVizGSmxoqE2n6KOzpgRDH6mkrmS1JXcUf1hSVmUBUT8V/SiDXIZ5nPm+USsdmYV9nfSFt5ptCkGf4jjjgl+vFwMJYCTwAABYACqUivokiDK5w09lCpo1nAtXyjh96FORxa1+M5s/m0N1y/cpQbxbj98R+l9ZhCsABLfeRqs/iO4FpDjzZ9/5sIPTqnu4N6f/Q6DsQLBZYO7LthuIglBDEZD3kGM97Berh9oe+Ib1RJr1INLgv14KzwDH4VUm3y1izAUksuErda94DbvhN3ZN8fEwMEw7ozZ4j8Nb3/ND35v4f1EzpIoWmg9WNG/nyK4Tx9USLoaWKouxSMMqdPUyBTr9kkke+0mP1K0logr74JS+PgJ8ckKWEbJx5k4Nh/QL4iUVe5WJBWZSc+NlFbt+QrVSptQ647B1fkRvdrAu+2CkTnMHcniyJ6+3WYOTAl0a816kjCDUXjKEw0sTr7tYO9+qElvgF6BDI+NzD53z5X59BDE4F4veG+2MxgR3IUlgEZ2UTigVqCEOKLimDPE4Oe1eyei+TD8XYzuCi9mKbaZpfln2JHwHpJHhBQnJPNXFlo3QkzUDuOFjWnfVfuC9X+R7KHZK4iVn6KhtWtsZ3esKvrHJRX29+Dgx4BJs7Jb3NFAJICR4giUQdU/fJo8Qu3WdayyI1rH5wezmS2FHHH0OUUgADjur7mhSgdEDxdVPoooqdoOpvah1Pr7ct3hC/gQayQNEeY4DjQcnz1LQUqF5JSvdWQEcaBJfeRtwcbxFZRxG14meEX2BvGifNmpCSBdtPFffBM8M8y44PzqnQ4m4jSiyeznvrLhI51HifZ//TsmzPcK5w/81fuCFow7sRVhI93/jkr1n+0qV5Dn0+Yy8yjTcbv0Lhy6AUL4bjgkVT2yxjlIieTGqGSKPSNr2d/0KAw1RuFrpqmuJPEviE3do3/rO3uhfRY1gbeoLCgNiIC9DhNjTybW+AC6rJj7p13OWtEwQjemZ2tn1sKTzpDZCVGbKCgoDCsVtgGvi9VkpJNTF5UweOOEfu72Ak/JDL6miWk+jKEsg66T3NdBOoH0I15TAvw8a+p+G6M+wHEU4TmGiiNdqWeXDs3+EdE6+zbzClz+PjIY5cek19Y+b/SI+VgkZ2gcyzaVY+Z3qVj4liQIyH2YiyxKwnpdLkQ40jCmxz12GXWRHswOoIAc//9i+msELQ3Gzj9qjVJz2y4qQ3cAtINpfaOMF3T5pcqov/YRK/9FHz4LiNH7lBcTO+LFu6OJb4Xbyeu9IVtAWbuOlX2V9ZAvf1QLA5453x1HcSxv7gsUyZjJUbir/Ofkf2XOU2zxE1F67UGFatGs4EdCJCpO8TizeFxmE9qD/izZpNGIjFZVjP2QV30Tt5KMbXqKKr3DcYef+IR14Og0xFL9SZ7HrlH7h6zz3ty58cTVG3gKs8bVs0YYDQy5cXKIhaDAEq5a6Y0YVg8UM2Oc3EYrbP8wB1APTG5v299v7dxQeUNboN5LoN3ZMbFnDPsjlNwBwohWJhSLF/LcgflYO0m3ltnDJsUEAPArIkkrMr2Co16oaFDDQF6TbO+gedNWGRGcHo5ebwLcB15UR/2ngkqXwfkyWNjmwRvZIFgo1hiLf6I6gQmP7OuyLod7BC/shX3X0nnNWxUkS6hUlqmS4R2fVaVR406NJ6Fi/uVeuvfDl/JV7brr6v70dY+J28E27dMk867pwemmVJZiwfuS6K09BJwdttBZTUgvPBI9Z8FNPgAAcinz3xF20wyalIRdGwhti6uR9CLnrN0QzlkE8luh+otv1cvAuKbI+GLYk3WRf/qkPHvrt75AbwBv6V8mXI3I9MpH8K4/zWZZfjP6gsK/zgEw8WJROsEFQzbXg+9HC/rvk6uajgHmpMkO5VAeOUB9lxkR6JOmCxzMmCoovnwVAqYZU35Oq8iZJqOxdtntNl72bvn/CshM88rPr7tZJxl9c2fxedkFf0HEXes1KPVsbKWy5wfBOs5WsIbfPmQKeipqYg+IMG2IG1gHQuPTiqVI/lew4z/7us1NvDC10GMyJZD91LG4FDv4Zjvt4+rPNVs7YzaO2LHNEYpaXymhl7ow66MX7ZDI5IGYP6jzVtlRMVywxYj0XYDuF3DyE432jLKdVmrhAzJDw+UpKP3ly7f4jEzmUnrtQ6lGLfxhlalOgclY3i0cXH+U7waSBDbza/DqaO0vWXjoTLwOrxO3hXkva5Xlx3T+iFfAY3gAqtezaioYhY4ykH/aV2b+kjCQQmnhJd4aTUjX+XAZ3xQ/+9H6bcQ21IRoHkgxK3iVCEARUtqBEAt07lgtDBr9flmPZuKLyjhu526xB4FfaDySp8HYsBpVDa+h/9DqKIg6NoE8/8Lfs75kwoVFdD52MJlqp6yoKK4ecNc+N9S6ifAt5K1zrxq/0MJCgTCJXxq9Zw3cms5CCfw25bGOsAIleLnQnJjGVMl0TDE7zqkaL9iG7lLk4wTWByLoVkGIZC1RkexKOLvJBpVNyDSMrqfI3zZ+AM2D0AOUmm+VYI8iRNeYHk78OpN8w3I5Y2j1kBd2zlVUCufUGvpKGaNPfulFgr3BqeNK2o+AoNzraXk2apT4pOD70MVZW3/BXLksOCUdKB7afKKspdvMZZ2UAM3zlJW1JjLtmdAdymSdkaI+d5OyXzK6xEDTcx/QqdBIN6uABxH7C1BmTTWb1aRRC/ZKBD0XRKIAikNCGcxsLDkd39xPmpLqYdKb4p9rgcT+QdSQE1lrCQV3VK55vsLy7mugV0l3glAT0R+qCVihnd8PhnvsX5vb3UH/fRonbKPF4QL+ysIK02XVKT3Gm8RElpnQZeuRR88TbKE35wMINhiPvD2grgfXPzkVgjwl8HNbw9bTj7IoeFzNDe/AABufKcRfljgKomWQQxtywaSixLqePDydsiVG6yS6t4hjMT1H7CQjWqKix942Smg+Q8CZjHK/UzBVc1+2NL4n+dn3XJZC74VPxAoqzb5sbUaGA6AuvjMFdlmuLKpbTsT+CB/K1wzmH5ryaUTbmu3BLoSaTfAZzeTt6O9Cf+EfIRbv0vWxQoLspugPc6xpo4jwgTp2QHpS2iE7YTbQQ2ccIa6i25wHhER3H4GjcXVJwOtyfQFxFZ/2svESDJsdpUAZSAQB0A/8kUlkxr2VNQXZUStqJTXdzJT74oqXv2nvNbowsW7Vi26wf5g4TyeBCDLZT/ZwvYuxvzuN0U+34YJijclX3YIJ7xcTzCRdA4El1aewG+zZBmj0b5O/IVfgfTpMeyJ21994PBxIqnGZ5OcTvapZxbysy/g7DHxmB/J/AVUbdI/JUWhsP8xCx+m8YwCbksnpsJX7izh9nfurZ0i8ccBSTkuMPY5Lp+1zph7xuYmL3S+miCPEfxXMpWfc3F1y2pcQzA29WX3T6m0CoRCpEjyLinzor+9Ey+bNsBUfP4y7KuE75WGcNbX4Svg1eUk92jh+7/ctv2Ny8u64E4mTztyc4G+nFH+2gK7r4NyCC/EtHlv84XWWfvCeZDmX0eFi2OPFmy7TUzzwmZu/c31tUrbDcSfWIH5jveS7nkOmkQKI91DwbWXIVH1hdFpK7/KX0lCvhovbd8n0RHW6W/72tG1tIOB59bCqSoq0e9RFiJegfW7H0H60xxXz1E7WwhtQh+Uiafp2u5HIPhS8de+e9nuL/5vVIKh2uyvNylkrh6drvAnZ0XzYkNuPe46ykceNy15QGDe4t5Nfq07hKvMgtRDUwaKjXPefcensZJejJyPHGeJQnmb4TrC7UdnyNYl+UaAl1o4LgSJDR6W0baLuEHZ/EB0RhpmZUhVVuSJya4FHGTZTbSDdriwAWR6yqgSX4B8c1JOJoMYXQ9R0b8FfS8+uefEy7ZDb25CMqZZlQ9t5ooiIHRKKtgoJ8uABNwPjKxny74na55eSZA/HXVaKzH/pDegwQiQLWoI7rH+Gfq9xceiN97iewUIhIj9PKjcBt+jRczYrEQa/VVIHyGdis4X8xVCS+0qJfzB1H+A5gkB2gb0HEg8+YyNp11OqKfR33eDAUa2HJLgkp3yBSODMeXLhQJD6305bWC38X/alBQaUznGyEe8BjPCyw5cge12+ej1C8avvn4LbQeB+I1o3gsUeuaYSdbLViLsNJW1DCqedaLgsinfID8MvITN5riF0857gJ18Y0csgcT0hE0DiV9yc2bARfX70OwX3lt3E9s90gPBWS+v6F9fhz8CuHD35kOBujFxFwX4oa/oK1XH2+FHEU2qnR0OhWyWXk5XdtwadXeq9DtcUZLxutWPwYLA52bycQLV64dUfYy6w/TACR3xSJbVf+/m+bH6ifqDwhR5FPMSKKfa2KGADWiAzT6zh0Kff3V8TUw04WPybHf0lJ1pr03XRSrAov13seIkJ2nDsenDuIe/CfjXZ55pm0A2LnOPMxyySw53ZSJdNIq1ccgMEYA4/p7ydnm/CcePCV3hoJM5oSdwtjoKkwR5GinUOQnqx27Rg+DX/DEY/bvtLgmZ2FilGIzjsti0S5WvDnV5K8YnUwccMLWbUhKxD1rK6BbGUU6+iQk4Aa5s2BJFGZRyjWjZHnTjs/L1P3GTSG4B9UsenXc/UacdSEKUGma+oGjMK9D7miPJVozc2z3QnixlbEcX8cqIHmeczwt6uDT+D65oQ3oHSDtWCZZgOYy2qAshew9xCqhuiY0yOIM+t104zTb9mcuzuYswGEbTzlzTWccToaqIM8I7z58DChHjGXTdmGSPp7xeEG2ZJQGKiJ6XG1Zb0f3GVqOxn3okto5WCOdLqlqrd1htusvlUZDkMTfwJr8KnbL/+SAMfB5sPr63giVr4dFZnzmJp2wp+rJvG3BkRbiEh/zVhOdYrcyOCJVbjqGAeB4Fd0R/hxiB6h5pWTbTUwAr9PfXUs5f89mje0kt09XM/ViWLIxu8ARuDSmZxhX/+KbMtXBzty0LVQyE+QmbGmW+MbDQKxj3Vl9zwrG97/KSXDiuXErU04RMfBOowPFfGTqFlRzePbyLy6EHsX6rHP526THW8RdQGe5MPwrLOP0Q05vjZ7ZvbEfhF8Oa2gofk4hDvUjdjY+FqQQha+E+B8eAbfnk3wWQDdDMBxxpzW4bmJagxZsy+/j2danT03RX/LqM3ahLKSq9hE6o6kKokflKrfrk/EoVV5WJ0Wm206QjlxeYSBV3aWEKZ1WiIuMps5TxGXPuTYYxis1a3spvSLAhd1jN0p/M/P1wPfHMPA8nGVmNOkD6GwgNyKZzgkvjt5XeXi5bx09BLGZI377gwEkUhaHa0YRAdWFERCoVRLwlNGQVCDa0yTW4Cq0v2EF3eokA8LIG6xilkwZd/0UAY/W9V71mq5EW290n6KmEUT8ZJ/PV3wzd0k/d5fwd/oHloxCNOEZMnjoACvePS+QN/+lUv67UZIOjs+22jCHdEww+bPulQTmZ8x4YVFigKwYgAg3o523ir5ReUIldwzzX3TCPC1gw6gjJe3Ehw23uG8hbz51vzGXGoRO7V4jaAEq1ZShrooSrbL/pqKpVmPml9I1ZlSU4gpj5Nvxng7UaEhAT5LFL7cT9+Lo/2l/r1IMX6gWHPIeIJvdotWrHhe/UXvoJtgOKLeHZqm2UmrkEm9xZ/ehxprUAQN81FuANBvu0JmV0zSoFsZ9Jvg/8q6tq0g7NitNX2HAamt0Z2yzDxShEzBgnkEJuGL923OL+Oqq79IwUemr0MpodommLU3ggOaqQa+AtbyUyE1JbkdtT46WMCd5DvJ10c169V6MxCFmAS7DCDJxu+Hr+t2Di1mg1Y4vuZTtLe63yY2p+o8RmQjBz3KfV5Fw3N903C2mX/NH6MoUQIbb+69vBlDPJuemjRvYVvkdjg44pUHJ+1IHeTojg8hOVcE87sJAA7mfnXMT8Ov5ke7carRBatnTVrnbZqfcr/eDlXst0TkcbkKOMJCLfey5gVyDfV9e+wcN06x78aMypbisoH/snLY90dwfrlCjP8CMx05ou96q5YemnXpEY+IqGm/NAOVBAuSJXfqUNQP9CYH6uE8ShEszUSX2Lok+AwZVpcv43DWo1UhmNxSZL27RL0VI/JTOMtppq739zmClEpFVmNsAHF8gFMjTDv69Pun820OuAgiC3Gyn3QO+CdpF7qopzJuJIID3iBYS+mjgPmpvT4oUzFIYNKAEXnKtHHP7FBENY+Tm+F3DNpOyoMvqJiVRGQgkt/dHXpm64I2svLyktflliXwmC5bz+RXI5M3wBXKL3FnX4KgbT7Ut89KT9lJnp5vnb9CEcsaXkk/s7U0mkFz6UnUl4n9pil5bDne5fZlohwuaNi0H638oPCsw8VIVy3OYcU5vOth8LdE4ZHkfq/0JsNRAS03xjqA2/6DHop0L8GdWtF7p1alagHYzLcTYgpdy91UXnheFWXXsEK0mR5YNlyrspj3voZHdfEKjB0kd5S56LHcl5731h7MnxWMHwA+7tHKEY7UGC2JNWkVScqGgt+bBHsTBxX3ubGdbiV1irVHPiUu5kZgJBUZy3YeEOQmwWmsVvWUQPq/xYRdJe+1FIP+FKwwv3Meb+3aXvG8KJeFqI+q+xVaMQdTjOyPqgGSTO5AYc/QXTmuKNEx/aHTMUI57mhuvCJy+GHDgqYDG8U0785+flfQBSWe0nEiGNR9k8S96LqvVhDcdVDTje3BeLAVcsFA9J4Hv0cqgJOIQwqFdLE50Vj3/FS8TaEDn0phQjmPP3YLm/RECKxQKvr43XvjkN103ZWF8SXilyIXkx+wn9597Gj22xcOHo9PyItZr7R5DFF263cOUfFjrFyGiHXuYHLCYhviJ+VFcQGW5HyHO3I677BLJ7kldJRzC9k8aH0X6B9Ow1QlF/4EMH3q4w4dsSiRPR0XnN5my9+RNpQjLRoIOxsa4hsSJcp5pUyGGFUV9cPBRfZZ+3/fV6MKDA7eBwNuSzgbVQTdEnKXQB3citI4S8l5HC1uQiBxZ7qFORFMLZpIJMzyL5XjhWePb2e5kqNgB+/UCJ3Z+yQqDNZdZTl8FaHpT+SIj1AFt1Ol2pADx+SZolZqRF3IuIa2HAgUTrc4HFOh0GO98eBs15JqQ3blGZCgjEznCE0zERpLZ1TwMo8d9NVi/ctxfrxM5zKkVqxB/ZQs1/apP/8jysjHwyZBzBAyZIKnkEIXKVTsZ68h84PZ81aPx5Oy98JUqfMmyJHeAZB08WeT46YaQVT47wAbjTqDHPO5n/A3NoI5AOhduVuKfn0dFtPD7Ee08Nbyge/t1Xnpd2TkD7IRmNiXq+J1ul/krP8X5ndOKJDLw9z3z4NF4+YGBRiVQm7eJ23DSoSQTbgQ1D2xwErpQSQ27nFxfSDtSi8cTzamBRk7q4Z0zG39nWBdVfQFJeKFygf1/L7EY2gDE+qDy4P9mdT3sqYLwkFEUS7OuylJI3P+csD0JROBG5AxUdCQO8hGZYb+Hej5TRy9pblMKGOCtrvZwcZIugYnt0pVq0BIU8QDUhkvUlbfVBrhEgqOmEwC7720ybCGRZrf+j1h8PG7cg8R2Vt+TOSlPVPxBeBRGUTAYSOXh4hnpxHE2Qb8hjXq39Yl54liK8aI8kCEfB9W5TKVQS/7ckDajAZ1Ez8kzqn3HkVxylSn5EH9VezIr4gFHdC8qejEzCH1a+W54J2scZ33tHHWgUapwnC8zSkTPx7YElNpDKtItYhnVScIXsPtxFjcWo+QDqR5ifKXpkQP0yFRYAQn5FfD5RONLbcmQwCIaUOIfbdp4z4O8brm+rwaORb34A2somXiXD0pDDOYiaRT9zmj8esW7LTPzpjVSMGmMp48f2wLvmX76a9LQX9QHhQPwHCeHAelPGfLzaJh1T7Q8IpgDjn7VS6hItAM5jAuV7IXGMS2HlwJXnFWpFF6Sd9aC+7eujhG+99O5fGDaAFGcfPIbssI2AmJN7H1ER0UgLN1WHMrzbdlacuYXEkmwddZlTNZFkv5zcKefXCC7d/Q9QiH4B81ywFIozkz15VU6XiXKqOr6ndexlgv9jqlYRPMS4PYTFKLb0Lf4hQXwKRJOR3NiQNkLASlC+qLR5sRWbEqn3rOLjCJR1kRwb8B1zFVK+0Brx6/NXm7D4u1wY/3W8xyBCK99SVAm0W6wwlv7nqVcgqrpPSk6f4BhYR/SM0hFLOBkx3oF1RHtxBE8S/n6KhPw6zdwULzrhNSVMGQR/6qGCK8hv52yHzeXd/NNN7Uk5HOutFMU3IcQ2lGMjGGlK+JQ4KRCcaC976MyW1hryldhKmbJX8gOf69lJybRIEAeHKdECLP6sgJZJtIAmkyIfa+74tvo4C2Lo4ADnpPXxsAykepEd0w85Ld2wCaBpXhJFgISsQxBuJ69vfZ+FnBEbNhZ/LlT2jkBQSzEcbdtQxn7e7bYJrhET9CwVgprwU7lj+DlqDY8fZviJYQ6latQC6mFzmrQasqW/61nQ/TgfDFFZwd72fAcaZKcqkTIAdk6xao4KYYfTplfhkH11hezH0qqcqYr9Xr87aTpGe735371Y00oo+4TlYFzfyLA4Of/ERY1InHWB4EeEP6rXbKvblIazVgj5bBM9DGGMHud+koayz5u9JITwemcnilSgFlTGY8Cz3FhBih8wUxDJ6qweuSI7wf/DB/alVCtAARiQwTybuV6bPCk+rXqx+UknCJQB+dskChDulTsrSU9w9iIWO8Z9bgS4VPC30OpdHMmeRJLXXGcEi9YruXTeqjERMb+c49Gi6md4+MDeQuhgs5RxIjkWYj/GqqhZgpMo/Zn1K5HHQD5HaUPYdHpQ4y7gk9oOq+ykfCkce+OTOFLhnl/xnpoJO6yXMwmU9//QCHrdjEUnY9ZRDEk30xSS/DZPG+qTrtxO05waknH9OQaZp5D9AOmLmyUvQfUTM5paGsvz6OYQTrlx35F+I+bdIS6UB3C3rOIS5aetaOORh8DWICj+qFqz58hayLlh5rj8EbQM9SZfpL3pfogOj5JDt1X3weSFsVsTNK0SZ/oxBeNZ/LSgh7gMKQXWwlniKhvomdlWY5zB/oD/5bzImMt2rpth265eNPdmeWduAoAzTZ5SGsvsgP8+qqdWCASh/BZ69SwQGxobI+yHis49ijzEjm6MrjxsDDeRQrt9l5CWup9VlWmLMaFfQmOdJ7rTV9JvpHe0ajbQfNRU0cFwT+Nc6WBua/J93RoCyXBR+z/YFc9EokmbPKz3y84zrEq30B0A6by/cuH6CmOTtU6tCGakdjWzhYNBzqlI6ehXlYcP/EQtfbvSaqqV3t4ZBRE2LZJUpQaiFvpRGAgLmK/d3uunI3dtOAR+w/2XgF1wVh2m8vAF/sLLeoXi/dV93KLJB5oh5nujVt+S4oFp/4SpRpkoyE61Krbr3AQc23oSyl78EI4qLPbJ9pq3n2RVjJ0pEqRSOW4sSv3P0keXCf6ipq8kvY+FrDb0JC4q/8Qx3NWamTrQjRK882AG+1h0npHnB8zoDDwASDEk4dt4Js4hZR/b9KD/kgTYnVBgMaat3yK//Ur5e1CimWnTWIZxPLKmea0rudFi2ZlLLOksZQfNK2L6v1ClEXpbuCeiWz+sqdDQESgEGfo+k2W8f0HueKaiYZk0SFHVBlit377wxL2IC4veB/1ZfqtnphFaJE/Yb5EtxsKCKMRDANGzDG+g0KhR2VtWGAOV1JbBfyJknrAiw24gSNCAIJNZXk23KYKsePBzMVSChnUmSVRGYUPzfDGWZ16fZmZOq0jiTXNzsBpoOzs/X9s5/QUE20tFzXk+KtOShzqbQAEUQVcT71zIiF0BuFi/40mpXguw05j1/hg66Jf/laN7irAqEDIcMnh61DH1mEc5T5devi1qWN/VSy2JBpfxI5YgibNE+HmwcG8DgAYXdU4owSSgDfdqBZscb2pA8balzj3n3wJmXofOTh9rBCmzEEn1zIlxR8TP7DrflltM+9Z6mOmj3iqKeKDeYL7Q/riEB4BaGaeU2L+vMAlv6X8nZ3nQoMm8kxrmycp1znzpWxYTffpvvGfRrHtFky2a+caq9y8cJ+zHBFwH/S6CES89kZ/l21+BhHGrtNddGF/NKxbXM4K+0sCk45ANpK/vnt1rEs4cP76PjsXc+jWbYnEqOZD3Qz30nR41nDBQ6o6+p9ooO1FM/RvoLjJnQwlzvsBKVNJXrbJlW8CyhlER/Nk96IjmtEyGNihY6trzTXPNWv2hIjHi86F+h8c2N46921hubMnevGQXaapTHVTkN0v/O5AqNDZVZs4De91Y7CZM+eOwjQlEVn3ui38SV9jsdkmZGQALI5m7VwXvzSrWE8pmCrPjKLWMAV+wgnrV6xYP1OZZHjT/s/2x/3RpQ5pCRLw/qC+XxgGdlrZfVqNtYVvBTX/C3nm65zD8bhM8U3MYzrE7f+oPovvaQkYQSNBfsspYuLpqlMhLJrkh1tKSxpFguQPUH6D4LuB35dvY5wkOwHmOaffEehCpi4wA3jS9ODrOCjyzG64yn134EExOn6TO1eDpWqEKk2v2kZ55LyCD7iAppHK5RKEzFPUXGis/96yZZ3a0upcebXjfatCvuO2y1d9cMVK/Bs0d1xf8Z7vGPIQJ3oCtmnVIzydFTNC4rhl3zpbHRHsqoRMDteMEvWSu9lw3WVyQKyRq0aBbHK9Ubs9Pz8exdnGnGjJN3QyTpPaFokbAYQIimUCPJoBbDkgUSV31QUwL7iSXn1FrhKNMglE4evN9g/dgxWLV8LSZQuL1/JaOXgGrVEZzlV5PZaXwqz45ZQ/dSUKcJpFBwgvtFubBZ8Zr7uZzbODZF6LdynxwvPw11rYDScuVJnusbcvjgVzEYCzCx17RLWYCR7Mcsj8UkMm2cggg2fSELZyAFfanWcIloYf3drzba+xbMIrblT26veV8VyV1sxRjAB0jnadbXf7qh+hiAk+H1S68ddszDKu7oznrMfeYoLIOlS3MBTlKBVd9dcaNDJXFbl1co0h+ggD/n3JgjrCh1mPvfPXgU3HngLgXf0ZE3MiW+1Sz1nori5lOj7V2MtuUDsamdrb7MIxfmyrbrjc98oqyo3UYV0BugkM1FfEzmzXiJZxJ/GgKmg+YevUhuoxw9wwa0yvXOfuzlYE3zVPadFKSrnZrWuu6326l0N+I4/MnAQ+1LMonEXy2+2qmL1ELEaaBTPDUYcOmi85GqtjOtIh4cySUyxPdJt4w+s3vUW+Cg3qEtOMABXUKPbChBSbDwYiTnynI+GX4Xeltw3C3PJc5dRCtlkk8sxXxbrIEQynbhk7NlKiMscIQsB5OMxbuETongL0HoSg96+C7Zxq9h/rVlUFD7MwRZyuwuhbs7aFUTrxCtrE5JTVu0JtpL+GwHJirsISkoe83XhL3e9XQTVfH06RPnlcLm6nc91uiCzD1SeP0XE6MaROtAnepqY4C/WrRoViKSZoXVKxBxfAWKG5nbWiII2KVi8XaqJHnKbyLv7zVR5kgdPJfjybMDSuc3TIxvRScmxN7Fum5nyrEBOg342AAOmASVOdONyyn0fklhtgXaaZw9d1on4Vu7HTeXrCabOjy+ITU/+y3jS5nim4gEvfVb6+2/2pdx1RsZRGs+kAOvgAoX4O9EEH2lzHMKhOwdVeId6q3Tfd2K87KnjkdiNgBd6b0mj58mcABaG++QaKw7YWRwucLN05b1hSvfwGB3JLcwTmyrPrMAoN2XA7gL7HR/6qAlyyfynx+k8VvX1tqrAOC5wPB/NARHIdL7yglW8qO27SG+y6q+88nnbd+SWM6VfByVjTe4P9+3BX/c3ycH5XGSVHU2dRvV83pZNS/GrCJiRXj6O1HPNPcU7nzw76WNyAX+O15Hk868pnJ87oPQrdpcDPFwLqK94TOoL4FX2p2mwqbeUxgAw8MST7vy4sZ1O9q6br+waKTmGvkhquyfxnNy2nR3Pwejxc3FcT9e0s002JdmkSqZ76jgQ7Ye+3vKUyKeSahkLAtjTTWq4OM8HGVBvxgA4wB5gkPoWhPQ9tbDPdJe4Dk3KhTR1gzAiVCUgzHPMaEfBn4fXLrfetVK9jFkzMn5FlpfT/CvV2eIfOHwhcK1bnXYPDI9rVG6FNwdq2A3BDkO0HvgxVfmbUck6OffW1RLfCCennw2mAL6E8oE+dekmh3Uyr+Exrh5gCQXl99pFDMTErbBudp4H9t71oVJzgR/1RIAmYjxmbFGs8FTINQxIeWEUXs5AZEkkefEkDau+nwjJfpX7A8wFFBiRs78oqo1JXz4cxpAaD0dHkgq4R9t+y18qkbQR9O2ran5qg6Fz3l5NgIpbu1wDZnf9Dn/aXZk6lanV1TyvKnvVXTK8bTYwfyRvZnv6dGzMueDNB5Fma5RO+AZ11jB9YyKO3pcbUVaPAq567qUf1sIXMwcluny2GYSONm5/BLLiJJoZMyR2byJJxYeMb5qTGeEQ66laQfPS20RcwasRnGzUp1YOxmfL9PV6+QeTZAJoqgkY+nT3FlWt+aefL7Y+TQveKAccaNy1giYTQF7ob+MP15K44+bE/BXeTChpHal56ousP+CqmgldX4mG3IhAb86u+hZDiaQxXHDn4XiPCHuXlDqOqUJqzQqPWtOiMbwkuUH7l2zEq+Rdze0BbqJcKDY3jvBWEgmhuCeUf4Bb9/h59reuxztzR6Qrvt6IL5JPX4nmud88KLR/z4TPM+Ro2rAcPCs6infMoJ8D35/su6uItRdDMNt2eiFbrxDovDBNN4MRGnmr4unqaLTgvaVU4BTwKR4qVm4TdD195Ll1PL6729MoCL2KYext8B9IcCzkv6cWurlWeJxD9cUoJsqYYVCqA9zOe/D5Khezb4AzMX13NxLIyjOoON8YgNC8COPTzPvvrojdZ1BGBgvRLWMTEUFQVD9c45jKrAZ/O+bUm+2uE9OXuCmB+Ic3na38QOY0OOj5GfUZqH+cpvk0aCd5GBaZNLYExx60t04p0qU2hRzk9MNkyZHVMPGLCO3TJjxXO4rp5jgU9RamDyLZee8rSlAn+oR28lLUi85uGeojR2rQP3fB5XEuSHRa3s9CtPSlmfI4wvqwEHH7+MzDSnWIhMYqKTKHTZma7qcNRuDykRXZZjwDobNet4Dl0i8TK/UIG8hDCacscLCVScyXO4nLN3wBO4GiaQc760tZaOc633ehBrSIg5E2Cr8mTBabmL6kfC97I75WoE2VJq8ASy8B6TNlDl1Z/UT4itaMvas4trNvcYli24UbJZcM3/qAIn5rbbVmkrxKBxKbC3Vvgz3cQGvxkZhq83alEZrc0MOnxG3dhjfQNngbOcLHg24rriZHNwaFGi5WTON4SdNsXjOe59Cl3MN7rvuwm1CXfyCpzLWU5VIlVTfT+Bp3GtJq6r3GeIORvSODMRIMbVX2aw9AOg89M93UymBdk1wN4LcjI5BVgLD/ePpXo1OnTr6snR7mPTZ73PAEK3bu2Ps0P0495bate9OOxAIP5DKHvtfEiVB+KXvtBv7TyUzsXouevFg6GIT+9Uka7g/DMzoIgF/BGJ+wzQwuRYUjWmTnHAlQPOgdPH8LWyTzh4yX823+K/YHE9r7YFp4vVlKT0dnC3CQbNuaIf85jssT8CBYXh31twpPdxjEbXdVhmq2LlZ4lmHxU8GyExVrjCLMCA+w6TJAWg8A2QfxaQNA5s+qLnKAMz+GkWvex6AkSU0ylyinrLTEFWC1Bunp2WpR6sf8USSYw5LLzhSAADQAZ8NHV6ssHlsB4Go9x99j2C4GJ6N10tsn5OZKjVKxq7/LxQ4/VklXtLZFQnCg44Pn5cK47rmJUfKOrbpq1Ue1Cx1MbGmpUSkgQBkyFRywANB2fEeacdULRzsLR0EMWVukt1mv2L8yPK8AacMglUd8W4D5h6NkAVYRDoRCcTEAebwwee6I2qcT+XnzWe+VB4RT20eH9pAM4dug2Ta7aIPlzRwjcDkxh+K3Ld6NeRC5CQDWpGeAWOJWvKgYzSeVdmV3M0Mh5+LOG/BgyqzIEc6gjpFhQfjad3T9oKqOMH2dws2pbHLcnpOddt5UjoovYE4z/9OHbUfHdXs60v2Dr89U1VAUUkTpeGsv+yeWkK8699HouZWU3yAyM1fEDXf+rZxGJaKuVAvwAI8jrcO/iw4vvvBeWYGysW+BcYzeTmg0+NS03KjPW9tRf5uKJFrWiliFG0oX+13zf4H0m+lCbWDgQtPWFjScxzBaKNNgi55NRcSt2xpTJnSsMHzKWnIMpn6zTjmMmpyDUNH5B3QMBNWyr+eUlPA0mnpk4xUsCdAQ19D0Ljc3cbwd67+czZ2OnpEE8lonQfRyglh7LEOnnzsALW8NERrip99cFRdQqZzwuga5E4quJE4yNXyVUD+Xf5IwvWSQwNzEfQeBHDgIQMAdmO4vX9O7oMUehH5ne+PEvjyL/2RxIt3pOLz5xPvL70MDcm262jSEpom7YeA9wkRKVm7YzksnBi1t8ea4CBx9qaBcXTIMHMAaYk0YwkAfAenIzwY9IvjEAV5u8fgZtLQ7+VeBPb+brI+zxvapmBC8qY4xUq0YYkaJH9YSBGsNWoE/cu6b7eVcNtROy1uKLlWLPcWdOJ63EewTZa8tCo9ZoCQCCvOe793Z6HBQVEi3ZHu6eIQxAEg/yr1u5Zfi7lcqJfDgcYbg3m3S+ZqmPYdP4LC4S1my988Ev/mudyLBVMdJr3hdfG/hJcJlEHuwXrtXSOplfRMV9Z/yqKfTotj5vGZUXS5OdNKfGtP4sQmGeA/M88HH3TmfxkV0N/fIsDBDlXgmcmbJrIGscWjw+lQvy+QgKZ0Rh5BalKZkH1RjyzlChXjeL9Soa3wNeT37sCWHCIAFo6j6jeFVHSmvvMJrAl5nV3PI+0p71pDQ6u+22qmpNcl94J7jBUlOi1lP5cDQYY3UQFX714gTQr5umUBEfwv3qZq9bRWBeitij9eWFt1rka0E96iCGO0RPYkRRppC9dgmW8ChncvowByGmq7fCL9dRG6Mn0Pf/lIZSiLuLxdIPcSSGZHia+10y5T/dgxZnjgv4vRjGbGefqPmK5Z2j8JWkUw2SexwtoDPkiV/tOkg2YtXm2JgDUCMzq4sqKIJUJwmif07jrPzZJ9lSZkKtfFOh91HRcR8kzwSlkSx1oiXK2ktvFzBxc2kKvQPz5q2ICPKIcY8CuUHqDQe7hl0YcNpuxjhIFd7FtVw8ECcfl6BnwqeiqgaXQsI2m0GD9VOEtoKVSzZLfMUKomKOl80hXy/uU/DiezuTj1cOjY1F1YmPWObJwZTAh9aB3wt1lnbnl20uOo+WAIU9SzcuWsrtOQJIyzbZ0wFD6C1Ys4WRJDcHyFQFShne3LzPygPNogrBXZ4sPvNnE2PtSmnQxz8UY45NJB4IoREVHTxRJ03NXmps4iu9YR1fuE9pH1E/W+M/gTPNJUU/eHaH4wHxo4fe9xzmRSub0dwUBqlhve4GROoINhFH+V/UFx4oXWKrJYUqlNrbD96pg2LP1VMmEN9UrO+eimo3FbmsJEmLtgVVC9jH+pqS0hajEAAD4no9FDRGgYnqjEQyT/cKw3/bOja43IUtzpI1L3eOkuI50g08bh7za9ZniB6DauxYfmeoi5upe3BRb+qh+NvRJq9NnixpywTSf0BcxP6+6XKpfNjoW6SyEfKTUMFL3BA4lRGAhCA2UttZrtHA+GxyLAuyI066Z69Ddo7AMaKsyOQGi8OusXgIFWHUGMF3cj+kBNbcXxKFhZ7PjjrTD2sQ84bGndS7TNyMGc1Fse6cL7lLUKnajOgk1veM7DM6jkOEDbr6SkTD5iPe4cWNJQoXhu62LU5uFcmylJ57ysGYr+EkZ6tl1BMpmNKFo8zygk9SsTY5qzuj1t3T0Y8ecAFig2QKPkWeutus6bgyIpGA7mwdblh3rxgRAp/ZirYuAF3x/OK6k68RqVAOq2YHl1OwuS5TgVUAfs79WfnTw8aBJC6o0rfye0o3t7rhjKnyv/PspTE4I+WlLOQDzuGiNicPCYWPZ4k9rvbfT/Ak1Ib8t1s+RPNmScjuhfRyOYO5UiNCfUbP0JSVKXmRL7OI1AZR9R1eEYqtK5DUq2hka9hl2pjsQIOs/EtlnDws+y1TPyPrRpzvhMrzi4LPn3eB/scZpscwFZCQ4jSMpObkSUj5n3TeunbgWVi+v7evLQgum0CTbUZRY5TY58rivT9muQmpoXhH7TaWeygxwfonmWXW7FpHzSfgx8m+ZnH4QUI7sJxGy/m57r23wDWgUusyTjJpPTqRPHfWJ/gLAr9UMKMUCK7+gOLxycuhSx6cSFNjCZgIkSA4nRJt9hx1D0NPjcid8W5EfUTEOhuOoakUWhAIet9uo5yfwFQK+xAQBAz0xAqsNK/LxFlBBA3yQkdyAYN+EeNgHiiF6T1dHOIeH4qz55FDKbOeWdkDNd4oVgRvBnZEBuywrhxhB5oHcu9bNYypPX6WZtnYqU6wq5v8xUmub7ln8zmrSIkx6E/9XfjJ5ilLM0N5T9wQf6iZA/O+lIM6avuTlfOHIY79CtVGOfpl8MaLpyK7/cqgSyOYDv2GDDFJ9/n40SEuhaG2Bw7ycBwITjchckhNstezh2YfWSK+e8oy61v7i7hqGkdkuo/DLdK5/5H7GqnegvR9o9PY9cSnXyGUIiZeuYwIv35MtduCt6ukbGuqD8w0mNAM3N3vILJ541VwnJgYw+l5nh+WNHytcEDy71rfOfLf864P3fyOgAc9UKvXLzO5rpgCl1xauox0uH5u18vlbKK6+Qf6ptNmeJ/BQ69PhpQHNJ4p3LjUPq5T8tytxMAaSRMQzu3skFvuROK7dbX0e6UhWDbg53zhm9o/3rPFcjTCXvQD/91muzWRvS6s9kVhCpSjrvYZBuHhbHN+zl+grraQWZEpHVma0YjGbNvpwARhUvm7A6ECHVXcNhcTBeGU7+Zssx8TrUTofpoWogLsn7fX8wZhqDTG7Uis2iBtSJ0Viy3iCaOaUrw4OjsISp1QfMzLvDxJQ6GgwElX7xWPcaKdH7ZNw11bObwvrwE1AR5HdJV4SUqiHHRM4E+zmTBsxFANYsFhiTRGOtzKpQuLkgfomPTXtZn4ddwZe8KzcEBIANeXMotzS5GIF4m18h7izsA0DlAIwloOLhbtjc03xEDQvbARq3irGHW+I7+KuvXXmwIOaVkFECIhirpY32KCCTJ7+sMapAbhPkWk2JsrB23vOlMTIKV65oDSc1IlHGtdk/vn55qTWwP+7QtVpFpASqKnxFrA25BG0gcga4PYryG6Sqt29s0oADi9FQwOjSVsxPme4ajJme4m1S3krw66mXp43EadDX3Nu45SXyrehDNOGrZlP1An9c9gQFxsKWMXy8kJtQi9Cb9rULsel7wgLtIlPVOdRTN06dm5jHPzzQj/P4d0vH8FtAb/l+R5sRG0nNiiUieMtMgpSYfgyNk1+xc1wHjyGffxwDfnVjJg35kJR7egL5UV9rFVp3crcRSoik6mXqz5GsyTI1hugfB2y8/Z9eYEoXqC9Ed7Gtk0VoSy6u/DkqHa+kelVDSkRXm1Y2m3hx04er1RyPJpusPYR8ehKg8rlwZfwdrgiyqeM6jIup/2mIOPQ5WTNN+dXtFCvqf3xNtcfoTVOhYeJyaAxWDqILld0sgP7V66znAUQlmpCXNxCzvtCiHrZQABOneszfwML9T8V/YMRU/8G5Nf6BpnBOnNGuxbzBES8pYBz6iRRImoyjm3zzfTEbuiGmhRWG7YlQsayIpEd6qY2vClQFgoNHk3twG7h0gzO/Hske4Eogy5sWSItqN5ekBY+Z9UO5EUKjGuPQq8n+9RiquvihEdS1xGRkakTymXuOcvjzrb/u3803qPnS9RWE5gE0gfaDuHUvo1PYY4B2EpSNTkjv8pIR6kKgLfgg/E3ISSvV2CyXzPHsnNCfnUzPwEvtZFWjRfLK0msiVCRoAB+tfGq7meWDLBtZ+bvnZReqZ2efCbKAM+jBTC5Zc5+oyyutTnx4livyLQ5jWHEXUcttBNgnJaa9LHEMIA1o2s4ad/5ZxLl71GfxalqBXj5Apv3Ch3jbNSXUxh9ew5SnfYkywi9fnu62lcEI0MEUkdoduCPgO9jtO6OVj3WbP5mz9v2LjEz95VjOv5C9ssgVQDNKUr7dM3tAOQxs6EWanwMkWhYvtVRf7v5d+BhIoe8ShH8VaCxGleUZlSOhupjmpgEd5R/slVzG+hLnSzFym+aVv2FYaz3VBHm0GWdF/mHlwHjWdyIW5Ix/IOmwJQ7BJmPMTXv9baO6c6oX+Ot45I4w7sGVc9sUKRgDJORDE1OOakeHXhhcO6JoyJ4Nv/gyTSOhCgdHoWEi/PMR6C1UG1ZQnBtU+IcC2czXrinRrxV8tkGzxo1oUS6gv4owdxWG9+UIlrwHBiIDnCgN6ilk4ABHKJMVDKhHmy1CkPxluZKGpDWc6DwvTbeSnevDZ0GHiNRp60z6OSSXF9r51cK4vxEq6rSEJAxHb1rkol4oLBOeQtKpIVWd1uJiNQ7LN8GOX1zl9Ian47bWppYQo6LkTl6OlUZEfhFkQB6sb0Zny//O1aMNEw2ll1cKmIfIZ1mlS22XT//hMl5m4shU87nBTLDPKktkRjkgEaA86PHr0CcZgYgbEI46Sb+2pyGx7a1L2Yi0Lb4ZKtmM2jZqMMDJ7ApuXlLbRwkHnTAhWGqxzHS2mbSb4hxBipBQKFSdrvuE/s76yKscS/VRz2+/GYeHTQzQaMqaU4F1j79a/NSEYBLubWuuirxQQzhmAoPYmu7M6mG9zRtxk/L545WbVMBq5pMKhiiIzp8ftN0+oaTJyYkh/rDz9xr5X02TBcAtYiYTaa29THP0kCay0s94OGZeNCOgI5T88yJ4hJCS/Q+b18iHdERlyCsDrDhMZNI0YP8K7ptT0xVXip/GIh4pyw9+SfOuuJooexgyLY94rOqChgBgbfJU7S8Zcpe176Fzh89NA9dzJhjar3sdd5euA3StUgth1fofXqPWV0PtzGGCCxIXDycUTueOSZ5cbFYvzx+Lh67Ii1+jnzii/AQ3zsgp1FuX58QHnIu0U0rxtPhVU26AiPkoEQI/PnlqmtmtIA87aDWgcuyYvJ25IMISlqmgDL6NnzLt1mqPwac8fjBKxYobtpeFb3o3yencUs0Fi3xh4vH9iXe6cADbWmipWNXfY5wIwgA6n6/TKxypjNe2BIJwjgFSvao4nQFpmkSC/h6Rs0N7mZdVoD/gVLEnPv92LgmOHtxnRxL+s/+PlIq3xBlD4R4aAM7+jcJSzPo68wZqlhN0wKT+xSnTQ8kuEuXeqhEvDP2iqbCA/QLmYYETwWLEYFhiyOWbRuNPTlhv4Lx53/4JJTvS/TZfb/DjliI7cb8qSV0VhV55/q/VSWct2U3m3B7eK6EYEz6Cksv2BpSRAMVhy2lsCMBjInX7YEOhH2m2/k4W34Eaw6Z132X0RxQ0MpGCgNz+oFNEDvVvXAn+v2BfQ9kPfT0lFd14hlMv6VADWuu6DbnxilqV0CZdPCBTwmyJKsbtGYAaHCub5IGnSLasxCSHkr0z3t1BZcO1EDkVjMZkonHdkrRkoZY7/OBL/SyhrkAT8fRqdKqb5wpxouRjYQt2fKbNDzI2IirINW1aMM28EbHq1bQ2oY/x7m7EhHh6iHp6hdN8mxmcHVCayGDwEenhGVhnSTb9cUsUXn7FaYu1VjeskCcaFQUNxijDkioJ7HBHKMZXV8UmG4S02dx4K5sncNusFMjEmUD9Z93iGo1F86q/huQgYgLMhOkRqhpiHH4vegYxlVaNbxGF0HRAiWo52PkJW4kbZHF53BnZQ351adYIZJ9JsJktf7UXLyvVFb5oCmIa2lahe2OBki0h98sFDqY+7Y0H6cSMufpunjbhPjGnsPD6+YOEh1qcpQ9z70lqhQIbhP73iEutJ4WAaVnlFMC0t7W0htuHOS/RI/HOZOHJKzqUp52s26mJJ7QXJejfXKEH3ouQA42ycE9VE5Owx8oIM56Wb6ZQGZw8+5qBI2lFznD2TZq1aCi9fRas4QcUgbbVugCfgKSBfV8pxapKDqVYTUtWuabUpzT5X4viEHBBTva04GupK368XJn5oDKrMP4BwsubCMewOhcTxSUvgVk5pIW2QcQfUKSINWamKuIxb7UShmJKewWpvjbfMSnJ33rz4NlQnCjPZabHCB7eI6hEyF4TdMsSi94HPXBV9048qBUTvTlXqDgTLAuVR8RjqYLoP7StKJtXQAtTWKvpwNvgirKRpp69kd2UtZuvwH1sOXj/ypVfm/mV7o4EkMTkgefzOd6Ul2LwiwvmGMTrg/oxw9RdNstQ5y6dnRy5LUsNA86Vw6TS8Ci4U87RIpoMrj+eb0NGGZvucv978Bi3OY1WtMu0Ld7cXKmrfSDD9sF3xO/dbcvrqVG+MG+4DDZbO+VSFX8UpOT1jOzOPLDJyPZvG6TYYGFl+iMG30p5e+Kl4u1JLZW1ZzYYe0u9ckqlIrnpT7GoS//pnsLFc1s0jeEJw7ThRsx9DXqrEGSv9mOwIj6D3hBM+H9RpHhqFBc5m/wpWSXOrgpeteAShUsqywPZP4s+nmVXOXMnlfCNTeyqMwrvnf1/veLL6zcP9N3QsFQnR2PXtSrZqD5DdsP+L3Al4xbo/FaPmODboTWjr+BUOaAtzw1TobteDUcs2sWBcMG+CkZOEoZqIFdCMzLutPRRQBZvC5bExk0CNb8LZKYeyYp025FlgVKdtvjjDwA3KhUAT7My9x6WI/m85cY/KFeiw3dn3EKOx89ewtqVWzDekWEsWRNggsNIixghHoaQZ2Tj0s/aKU+lu9wJk3hP1BSyXflqQMbt9wvn44bcb2ETkXPhJxEHZaXAinTHhN3FVmcRDZXtFRvD80D+GV31xzq4Iy+pDeczqJO47YNX/GMRUfRPGSbWiMQVz/x9hgvU1q3Rg4L53DzsUjjQ+UNih3lcrHpDO59NGXxc/Viiv6imJXK9K5GdhOEHp7aXSwZArQ+RsuC00MVmLUmw39NT6uXkqdUA6FKmgNr+ZfFjWTfPJBAHYdDpV/10Z1kmoaiSKwW0OEe612NXP6t9kghfEThzA0GqsrlSeEeXGWwRLW9VpDUozJutfOE5O8BM+/YBpdVYsZptfPkeBdlloKdRyZdulAQNpD3VmojS1iKeHj82DA9b4AP8M13f2l0xIFXcyXoWBlvIAS4OmVCTvMNABJ96eu0D/eUryhkgEFhTKzwZLSt2tkiF1TwN+1UVeNLeuSG4UzMnQcPSBr9LXcj4ff1xYyR7mjd8Rdoaj7dHz7ONLMfMglB+LC1QQMu3JnjzGZxI+JnSkPV48/7n+CcSMH1dpiW+5WkGELcnd4fvyT3wZQayDWsT6N9mCrBC3wuXXO1MJryBM7LGN8vsZPN3yCGtgGrWmFEwFHxEWyvLKsWCwfHoX9kGr+m5giGpI4F2Jb7oC8lv+2/9U7d6y5YcRxjLgkY/xVHPuNtC2Pqr4hqnOMh0lhiYBZLKzFDmw3ApPu51QWRa6XwJHK6SnvvcrZ8moyq23invj1BFJJImAYxdcF3vQCEC5ynT1Klq1w4MOexnFHxceUf+9rAxXkfVbDTD7XqW+4wW2iVamqolSoFFHhAi1FuUz2hQwAaCQHr9VoObTMAT33acicJoY4tXRk4C/HDg8XEKN9kcthDkJ7XsEXILnkb5i2nA04QHEucjsR3QJZH1jd600Cs6OKheQBRbv/aQmA6Ev70JAgIcRIGZAqsMHn//cleNCZ+k+SA/SZx/yo+3HZDSqes7aYk91jKKnbAdxsF1A1GL99BS0N+bb8MItweO0fn2iHDC4naW8ektpaa86JxBKCR+vPnY3jRSBMVwiHdkM6xxTBB1OQoj4s6SLEhC544axqN6srxyBR9j2bpvOgcRYfj/CyoFXlsim2U93f1c6l/sSDCEIv04QLOVR7GtqwBAQwo6ep+ZRiEW9zaoa7WKR+oNz6q7sTRjmV8Ph9YgnRSC2gF9nntCC/PY9xS2ziGdlUSWaISKxhvSBOwo+Gik7z9AzqpaHE9dZFktEOWCNuz/FkgQLkvb6kGRaW5nxmPJDdUZ2rQzxIsik6Td3XajTnvAJUttrnILZb3yfuUmja0i5MdBRyy7Llo2RlnBbIVjCs48UJPO2AzC6BJ380vdyZd3SwR3UkSUNOd8dGrLnCqXKRf/zMp1h6IltK4raFmeqFAmZFF0C2Z2btTG+jhcegQ667AEvg6dzCwsjNcLgVId29CDoexBb2FS28hrpmDyrBy4YXzyt0SJCkZJDQ9+hg/X7MupMFyR1xGD/yKtF7umSQ9udjR+T7AZ6HM9uDS7GXKpxsQ9+D2NU2IylARsfvm4ZQGDhq9hoNGkwBjNtOUbugjKZwCXhtlJ4xjuZBqQUavqHxmAQqPLaq5p0iPsrfI67BxVs5DyqJG/wsX7ZZT5R3db44cxVplfIa+jsxXaRxH1vPkXdRWcCTRDvft6W3OjJOHRul+/L9wdUhOnVj/vfzoqyj5YHHfYBVAG/jUgb1B/aVUkT0S5nIZU0GDVt0x3j3vzV4CbI92vAaonuuVnQ3e4qKBNVoDkFdsO387YiAFt1VUyiYRBOAVxPPL7DP4HMXnE1M4/+O36PzHGhDZIgfdUjrrn7oUtCKMb7phYojsroOf2dlkv9Vqb9lhwPuhDUtftrn54J88DUexpE6AViTIsHwUs3bFQXJuSbYTkRpF+4aoLRIOFaL8OUQFD4UabGo+PNtFUlWj+9H4pO8YRxldQiKnfPzMSRJsIZaHqIsYKJgBYhHpIFgmBZCyLQbGk8Skg7dnys0HkqKBJnDX/ujngi6KiAB1vLVUoclPFc66cxwEH0wofoJ4tI8zmxhCgVPJF02LP3V8TVSmKSYcB82/wY9FvTePwvmresI9eX6VoP4ZWjMHY7C+hwxO9/n7a2ojXA6QSikPTfnD+TJSycmOa1mk5CukAzCxRIIAjVgYzX/Yfe1m9UhRG2hV0W4ukD5tFDpGY+T+1bK9kjRF7fn4GErEcCnyzsfjMSgVltJ5SyHfZDtyNnCGw2zFkbdnHozAE5wnO3HOXhcnx/ODELLYxc5r/C+M+E8GpJj3r21Lq6TmzyxtwrFVxO0d0BWzuWEcA9MxrmOpHsW0zg5TgVHeq8F/CHm9lf7C4Z7tQ6A32g9Z3kFaI5wgVS6BsRa+PqiFLLxds+RLsSNIfIaask/YNIasCznSUtjW252RpfJ5QIHYfq98PN2qKSrszxJBW+tt4hE9m2z7tuw/q7XyLl8dncs/ASkIEkJAyLIBZQs2IAZFyxlkTrL+qeZGgUwilsW1D73urExj3FHhjj6sBRMQfvZMYpkEB11OljAktPw9fYctQpjDKcAtU2F2lMCgwus3K4a4+4g0q4eDOFpuAlDLmcG5qWKlDMIBYJPzRI9WkMUiuHUb997m3xzfA7hNOCDKf6z5jWbuX/Yc9+Uosmu1psoDsVOnU0QqQ7XGyJFGdqA5xz36yVQQiRGUnDhgJwAfZdZXKXElyVkr0y6LjASGUQ20ZHvHf1znaZII8SnPRtHHdzXKSsCx3pA1njHGowRJMhXXKcEwNCg9Le8xKXxIqIRpSoWaLgQcUIOjnl1z7rzyMUV6uexf3EQOlFcoTZd8D6HW3KABDv4ZUr5uBFOpU9rPAQpCetHA3i4JPg6ofCgsskRQYUAAAAAARVhJRroAAABFeGlmAABJSSoACAAAAAYAEgEDAAEAAAABAAAAGgEFAAEAAABWAAAAGwEFAAEAAABeAAAAKAEDAAEAAAACAAAAEwIDAAEAAAABAAAAaYcEAAEAAABmAAAAAAAAADhjAADoAwAAOGMAAOgDAAAGAACQBwAEAAAAMDIxMAGRBwAEAAAAAQIDAACgBwAEAAAAMDEwMAGgAwABAAAA//8AAAKgBAABAAAATwIAAAOgBAABAAAATwIAAAAAAAA=;clipPath=inset(1.33% 22.67% 1.33% 21%);" vertex="1" parent="1">
          <mxGeometry x="340" y="90" width="104.7568493150685" height="181" as="geometry" />
        </mxCell>
        <mxCell id="Pf2_Ig4Mhhs4Qp1NN6XY-23" value="Application&lt;div&gt;Layer&lt;/div&gt;" style="ellipse;whiteSpace=wrap;html=1;" vertex="1" parent="1">
          <mxGeometry x="210" y="150.5" width="100" height="60" as="geometry" />
        </mxCell>
        <mxCell id="Pf2_Ig4Mhhs4Qp1NN6XY-29" value="" style="html=1;verticalLabelPosition=bottom;align=center;labelBackgroundColor=#ffffff;verticalAlign=top;strokeWidth=2;strokeColor=#0080F0;shadow=0;dashed=0;shape=mxgraph.ios7.icons.cup;" vertex="1" parent="1">
          <mxGeometry x="114.46000000000001" y="180" width="21.08" height="19.99" as="geometry" />
        </mxCell>
        <mxCell id="Pf2_Ig4Mhhs4Qp1NN6XY-36" value="" style="endArrow=classic;html=1;rounded=0;exitX=1;exitY=0.5;exitDx=0;exitDy=0;" edge="1" parent="1" source="Pf2_Ig4Mhhs4Qp1NN6XY-23" target="Pf2_Ig4Mhhs4Qp1NN6XY-18">
          <mxGeometry width="50" height="50" relative="1" as="geometry">
            <mxPoint x="310" y="200" as="sourcePoint" />
            <mxPoint x="360" y="150" as="targetPoint" />
          </mxGeometry>
        </mxCell>
      </root>
    </mxGraphModel>
  </diagram>
</mxfile>
